Coordinates
nRows=230
nColumns=2
inDegrees=yes
endheader
time	ankle_angle_r	
3.16028	 -0.420047	
3.19355	 -0.409488	
3.22681	 -0.406636	
3.26008	 -0.410992	
3.29335	 -0.416675	
3.32661	 -0.419789	
3.35988	 -0.418826	
3.39315	 -0.413903	
3.42641	 -0.407790	
3.45968	 -0.402227	
3.49294	 -0.396911	
3.52621	 -0.392232	
3.55948	 -0.388073	
3.59274	 -0.384393	
3.62601	 -0.382809	
3.65927	 -0.382859	
3.69254	 -0.382280	
3.72581	 -0.382044	
3.75907	 -0.383435	
3.79234	 -0.384829	
3.8256	 -0.385773	
3.85887	 -0.386430	
3.89214	 -0.386365	
3.9254	 -0.387184	
3.95867	 -0.388971	
3.99194	 -0.389378	
4.0252	 -0.388381	
4.05847	 -0.387270	
4.09173	 -0.387797	
4.125	 -0.391640	
4.15827	 -0.397031	
4.19153	 -0.401034	
4.2248	 -0.402601	
4.25806	 -0.402117	
4.29133	 -0.402006	
4.3246	 -0.404264	
4.35786	 -0.407986	
4.39113	 -0.412633	
4.4244	 -0.417919	
4.45766	 -0.420343	
4.49093	 -0.417369	
4.52419	 -0.412373	
4.55746	 -0.411198	
4.59073	 -0.416107	
4.62399	 -0.422691	
4.65726	 -0.425527	
4.69052	 -0.426558	
4.72379	 -0.429939	
4.75706	 -0.434549	
4.79032	 -0.437671	
4.82359	 -0.438557	
4.85685	 -0.438939	
4.89012	 -0.441514	
4.92339	 -0.445187	
4.95665	 -0.447995	
4.98992	 -0.452239	
5.02319	 -0.456644	
5.05645	 -0.454197	
5.08972	 -0.446070	
5.12298	 -0.440725	
5.15625	 -0.439252	
5.18952	 -0.438830	
5.22278	 -0.441204	
5.25605	 -0.447258	
5.28931	 -0.454529	
5.32258	 -0.460170	
5.35585	 -0.460171	
5.38911	 -0.452674	
5.42238	 -0.442125	
5.45565	 -0.436027	
5.48891	 -0.441090	
5.52218	 -0.456444	
5.55544	 -0.471289	
5.58871	 -0.479459	
5.62198	 -0.484121	
5.65524	 -0.486498	
5.68851	 -0.486073	
5.72177	 -0.483860	
5.75504	 -0.480979	
5.78831	 -0.479780	
5.82157	 -0.478958	
5.85484	 -0.473133	
5.8881	 -0.462788	
5.92137	 -0.451921	
5.95464	 -0.441001	
5.9879	 -0.430613	
6.02117	 -0.422701	
6.05444	 -0.418407	
6.0877	 -0.417049	
6.12097	 -0.416318	
6.15423	 -0.416763	
6.1875	 -0.420293	
6.22077	 -0.424058	
6.25403	 -0.424763	
6.2873	 -0.424561	
6.32056	 -0.426007	
6.35383	 -0.427273	
6.3871	 -0.426202	
6.42036	 -0.423843	
6.45363	 -0.422800	
6.4869	 -0.423927	
6.52016	 -0.426006	
6.55343	 -0.428178	
6.58669	 -0.427874	
6.61996	 -0.422083	
6.65323	 -0.412707	
6.68649	 -0.402279	
6.71976	 -0.391897	
6.75302	 -0.386458	
6.78629	 -0.389246	
6.81956	 -0.394067	
6.85282	 -0.394342	
6.88609	 -0.392602	
6.91935	 -0.392089	
6.95262	 -0.391188	
6.98589	 -0.390232	
7.01915	 -0.390995	
7.05242	 -0.395154	
7.08569	 -0.409378	
7.11895	 -0.434892	
7.15222	 -0.455876	
7.18548	 -0.455476	
7.21875	 -0.434017	
7.25202	 -0.406661	
7.28528	 -0.389446	
7.31855	 -0.384821	
7.35181	 -0.384168	
7.38508	 -0.383014	
7.41835	 -0.383978	
7.45161	 -0.389538	
7.48488	 -0.397325	
7.51815	 -0.401219	
7.55141	 -0.399105	
7.58468	 -0.395367	
7.61794	 -0.394358	
7.65121	 -0.398425	
7.68448	 -0.407123	
7.71774	 -0.415841	
7.75101	 -0.421529	
7.78427	 -0.423621	
7.81754	 -0.420969	
7.85081	 -0.415919	
7.88407	 -0.413365	
7.91734	 -0.414991	
7.9506	 -0.419692	
7.98387	 -0.424307	
8.01714	 -0.425618	
8.0504	 -0.424627	
8.08367	 -0.423245	
8.11694	 -0.420985	
8.1502	 -0.419500	
8.18347	 -0.421262	
8.21673	 -0.424312	
8.25	 -0.426480	
8.28327	 -0.428199	
8.31653	 -0.429103	
8.3498	 -0.428904	
8.38306	 -0.427569	
8.41633	 -0.424464	
8.4496	 -0.421880	
8.48286	 -0.422902	
8.51613	 -0.425547	
8.5494	 -0.426238	
8.58266	 -0.425341	
8.61593	 -0.424657	
8.64919	 -0.424034	
8.68246	 -0.422625	
8.71573	 -0.421867	
8.74899	 -0.425609	
8.78226	 -0.433064	
8.81552	 -0.436910	
8.84879	 -0.436959	
8.88206	 -0.442862	
8.91532	 -0.456515	
8.94859	 -0.468136	
8.98185	 -0.469718	
9.01512	 -0.461702	
9.04839	 -0.450796	
9.08165	 -0.443127	
9.11492	 -0.439070	
9.14819	 -0.436088	
9.18145	 -0.431409	
9.21472	 -0.424136	
9.24798	 -0.417247	
9.28125	 -0.413080	
9.31452	 -0.411457	
9.34778	 -0.412559	
9.38105	 -0.415468	
9.41431	 -0.417445	
9.44758	 -0.416776	
9.48085	 -0.413797	
9.51411	 -0.410979	
9.54738	 -0.411185	
9.58065	 -0.414640	
9.61391	 -0.419878	
9.64718	 -0.424018	
9.68044	 -0.423766	
9.71371	 -0.420650	
9.74698	 -0.417808	
9.78024	 -0.414864	
9.81351	 -0.413077	
9.84677	 -0.414644	
9.88004	 -0.415952	
9.91331	 -0.412906	
9.94657	 -0.408305	
9.97984	 -0.406207	
10.0131	 -0.406710	
10.0464	 -0.408635	
10.0796	 -0.409283	
10.1129	 -0.406498	
10.1462	 -0.403912	
10.1794	 -0.404742	
10.2127	 -0.407760	
10.246	 -0.412428	
10.2792	 -0.415067	
10.3125	 -0.410629	
10.3458	 -0.402816	
10.379	 -0.396933	
10.4123	 -0.392802	
10.4456	 -0.392301	
10.4788	 -0.397332	
10.5121	 -0.402411	
10.5454	 -0.401623	
10.5786	 -0.395860	
10.6119	 -0.389791	
10.6452	 -0.387134	
10.6784	 -0.387041	
10.7117	 -0.388278	
10.745	 -0.395798	
10.7782	 -0.412055	
